<?xml version="1.0" encoding="utf-8"?>
<!-- Generator: Adobe Illustrator 23.0.3, SVG Export Plug-In . SVG Version: 6.00 Build 0)  -->
<svg version="1.1" id="logo_x2F_colors" xmlns="http://www.w3.org/2000/svg" xmlns:xlink="http://www.w3.org/1999/xlink" x="0px"
	 y="0px" viewBox="0 0 240 60" style="enable-background:new 0 0 240 60;" xml:space="preserve">
<style type="text/css">
	.st0{fill:#007DC3;}
</style>
<g>
	<path d="M219.1,19.1V41h3.5v1.2h-11.9V41h3.5V20.2l-7,22h-1.4v-0.1l-6.9-21.8V41h3.5v1.2H194V41h3.5V19.1H194v-1.2h9.4l4.9,16.1
		l5.1-16.1h9.3v1.2H219.1z M81.7,27.4c-1.2-0.5-2.5-0.8-3.7-1.1c-1.2-0.3-2.2-0.7-3.1-1.2c-0.8-0.5-1.2-1.3-1.2-2.4s0.5-2.1,1.3-2.8
		c0.8-0.7,1.8-1.1,2.9-1.1s2.1,0.3,3,0.8c0.8,0.6,1.5,1.3,2,2.2s0.8,1.9,0.9,3v0.1h1.4v-7h-0.8l-1.3,1.4c-1.4-1.1-3.1-1.7-5-1.7H78
		c-1.9,0-3.5,0.7-4.6,1.9c-1.2,1.2-1.8,2.8-1.9,4.7c0,2,0.5,3.5,1.3,4.5c0.8,1,1.9,1.8,3.2,2.3c1.2,0.5,2.5,0.9,3.7,1.3
		c1.2,0.4,2.2,0.9,3,1.5c0.8,0.6,1.2,1.6,1.2,2.8c0,1.4-0.5,2.6-1.5,3.5c-1,0.9-2.2,1.3-3.6,1.4c-1.2,0-2.2-0.3-3.1-0.9
		c-0.8-0.6-1.5-1.4-2.1-2.3c-0.5-1-0.9-2-1.2-3.1v-0.1h-1.3v7.3h0.8l1.6-1.4c0.7,0.6,1.4,1,2.3,1.3s1.8,0.5,2.7,0.5l0,0
		c2.3-0.1,4.2-0.8,5.5-2.3c1.3-1.4,2-3.3,2-5.6c0-2.1-0.5-3.8-1.3-4.9C84,28.7,82.9,27.9,81.7,27.4 M107.1,17.9h-1.3L97.7,41h-2.9
		v1.2h7.8V41H99l5.7-15.8l5.7,15.8h-3.5v1.2h11.3V41h-2.9L107.1,17.9z M139.9,28.1l6.1-9h3.5v-1.2h-8.9v1.2h3.9l-5.3,7.8l-4.7-7.8
		h3.4v-1.2h-11.7v1.2h2.8l7.3,12l-6.8,9.8h-3.4v1.2h9.1v-1.2h-4.1l6-8.6l5.3,8.6h-3.5v1.2h11.9v-1.2H148L139.9,28.1z M176,19.1h3.4
		v15.7c0,1.9-0.4,3.5-1.3,4.6c-0.9,1.1-2.4,1.7-4.3,1.7c-1.6,0-2.9-0.3-3.7-0.8c-0.8-0.6-1.3-1.3-1.6-2.4c-0.3-1.1-0.4-2.3-0.4-3.8
		v-15h3.5v-1.2h-11.7v1.2h3.4v14.1c0,2,0.2,3.7,0.7,5.1c0.5,1.4,1.4,2.5,2.6,3.2c1.2,0.7,3,1.1,5.1,1.1h0.2c2,0,3.7-0.3,4.9-0.8
		c1.3-0.5,2.3-1.4,3-2.7c0.6-1.2,0.9-2.9,0.9-5.1V19.1h3.5v-1.2h-8.3v1.2H176z M44.2,26.1l-5.1-12l0.7,10.6L44.2,26.1z M56.5,51.3
		l-4-6.3l-4-0.6l-5.6-14.9l0.5,14l6.2,2.1v5.8h6.9V51.3z M45.4,51.3L44,47.9l-3.8-2.3l-0.9-7.1l-2.1-0.9L33,25.1v10.7l-0.5-0.2
		l-1.7-13.7l5.6,2.1l-0.6-7.4l-3.5-7.3l-1-2.5h-0.1L30.8,7l-4.7,2.1l0,0l-1.4,7.6l-4.2,2.5l-2.6,15.1l-4.3,3.9l-3.3,13h11.4l2.8-5.6
		v5.6h5.1L28,39.9l5.5,11.3L45.4,51.3L45.4,51.3z M58.2,9c0-0.6-0.5-1.1-1.1-1.1H39.2l3.8,2.2l2,9.5l4.7,4.4l1.5,10.9l4.9,5.3
		l2.1,8.3V9z"/>
	<path class="st0" d="M10.3,7.9C9.7,7.9,9.2,8.4,9.2,9v38.6l2.5-9.9l4.3-3.9l2.6-15.4l4.2-2.5l1.6-8.1L10.3,7.9L10.3,7.9z"/>
</g>
</svg>
