<?xml version="1.0" encoding="utf-8"?>
<!-- Generator: Adobe Illustrator 23.0.3, SVG Export Plug-In . SVG Version: 6.00 Build 0)  -->
<svg version="1.1" id="Layer_1" xmlns="http://www.w3.org/2000/svg" xmlns:xlink="http://www.w3.org/1999/xlink" x="0px" y="0px"
	 viewBox="0 0 300 300" style="enable-background:new 0 0 300 300;" xml:space="preserve">
<style type="text/css">
	.st0{fill:none;}
</style>
<g>
	<path d="M139.68,90.43c13.27,0,20.22-9.01,20.22-20.13c0-11.12-6.94-20.14-20.22-20.14v13.42c4.42,0,6.8,3,6.8,6.71
		c0,3.7-2.37,6.71-6.8,6.71V90.43z"/>
	<path d="M139.94,251.51c34.72,0,61.76-27.04,61.76-60.4c0-33.36-27.04-60.41-61.76-60.41v13.42c27.31,0,48.34,21.04,48.34,46.98
		c0,25.95-21.03,46.98-48.34,46.98V251.51z"/>
	<rect x="87.61" y="23.32" width="13.42" height="255.03"/>
	<path d="M168.39,108.37c11.88-8.53,19.22-22.41,19.22-38.07c0-25.89-20.44-46.88-46.31-46.98v-0.01h-26.84v134.23h13.42V36.74
		h13.26c18.53,0,33.05,15.02,33.05,33.56c0,18.53-14.77,33.56-34.24,33.56v13.42c42.13,0,75.18,33.06,75.18,73.83
		s-33.05,73.83-73.83,73.83h-13.42v-53.69h30.2v-13.42h-43.63v80.54h26.84c48.19,0,87.25-39.06,87.25-87.25
		C228.55,152.63,203.65,119.98,168.39,108.37"/>
	<rect x="114.45" y="170.97" width="43.63" height="13.42"/>
	<rect x="76.58" y="13.81" class="st0" width="165.66" height="272.38"/>
</g>
</svg>
